<?xml version="1.0" encoding="UTF-8"?>
<svg version="1.1" viewBox="0 0 501 501" xmlns="http://www.w3.org/2000/svg">
<path transform="translate(255,65)" d="m0 0c30.72-0.54077 60.602 0.49157 89.972 9.9534 7.4101 2.3543 14.768 4.1551 22.403 5.6091 27.012 5.2409 54.86 16.829 74.625 36.438l2.6875 2.5625c5.2127 5.4944 9.7988 10.691 13.312 17.438v-9c17.118 8.0126 25.543 29.163 31.739 46.009 9.1769 26.109 13.549 58.32 1.6948 84.245-7.2715 13.929-17.066 20.003-31.717 24.912-11.591 3.558-23.571 5.9485-35.382 8.6541-27.867 6.4129-50.668 15.282-74.801 30.52-4.757 2.9946-9.4955 5.7337-14.534 8.2224-6.848 3.579-12.059 8.5385-17.495 13.943-1.4052 1.3957-2.8332 2.7684-4.2627 4.1392-4.778 4.6392-9.027 9.4591-13.109 14.715-3.3276 4.1199-6.9465 7.9592-10.547 11.84-2.0474 2.2175-4.0518 4.4541-6.0234 6.7383-28.402 32.71-59.83 67.989-105.56 72.062-6.5154 0.39822-13.037 0.43987-19.562 0.4375-0.88357 7.3517e-4 -1.7671 0.0014703-2.6775 0.0022278-13.437-0.029361-26.046-0.68663-38.76-5.4397-1.0789-0.40146-1.0789-0.40146-2.1797-0.81104-4.7329-1.8229-9.287-3.9198-13.82-6.189-1.6745-0.81791-1.6745-0.81791-3.3828-1.6523-13.366-6.8438-24.983-15.808-35.617-26.348-1.3709-1.3516-1.3709-1.3516-2.7695-2.7305-20.611-21.378-33.942-48.044-33.594-77.949 0.36152-9.7811 2.6469-19.243 4.812-28.753 0.68289-3.1798 1.1564-6.3399 1.5513-9.5669-6.6951 11.83-8.8327 23.474-10.473 36.844-0.53643 3.2106-1.4183 6.1008-2.5273 9.1562h-2c-17.818-42.526-16.225-95.782-0.1875-138.81 5.5784-13.463 12.674-26.366 21.188-38.188 0.68449-0.96938 1.369-1.9388 2.0742-2.9375 5.3671-7.4002 11.309-14.096 17.619-20.688 1.0734-1.1288 2.1251-2.2782 3.1704-3.4331 14.641-15.731 35.476-22.591 56.137-25.941l-19-1c8.4866-16.973 43.076-25.714 59.648-31.273 13.27-4.2972 26.556-7.6538 40.352-9.7266 1.1215-0.17515 2.243-0.3503 3.3984-0.53076 9.1072-1.3335 18.028-1.8351 27.227-1.8442 1.302-0.024492 2.6039-0.048984 3.9453-0.074219 12.052-0.036157 22.307 2.7108 32.742 8.6992 0.65678 0.36352 1.3136 0.72703 1.9902 1.1016 1.5718 0.87196 3.1356 1.7585 4.6973 2.6484-0.47945-0.35304-0.9589-0.70608-1.4529-1.0698-2.1647-1.5976-4.3247-3.2013-6.4846-4.8052-1.1321-0.83338-1.1321-0.83338-2.2871-1.6836-0.71865-0.53496-1.4373-1.0699-2.1777-1.6211-0.66508-0.49226-1.3302-0.98452-2.0154-1.4917-1.5823-1.3286-1.5823-1.3286-2.5823-3.3286zm204 74 1 2zm-426 153 1 2z" fill="#FDFDFD"/>
<path transform="translate(357,79)" d="m0 0c28.909 0.72167 60.253 16.972 82 35 0.6832 0.53109 1.3664 1.0622 2.0703 1.6094 7.1828 5.7334 12.7 13.285 16.93 21.391v-9c17.118 8.0126 25.543 29.163 31.739 46.009 9.1769 26.109 13.549 58.32 1.6948 84.245-7.2715 13.929-17.066 20.003-31.717 24.912-11.591 3.558-23.571 5.9485-35.382 8.6541-29.063 6.6881-52.315 16.293-77.46 32.164-1.6227 1.009-3.2476 2.0143-4.875 3.0156-0.81984 0.50725-1.6397 1.0145-2.4844 1.5371-0.78891 0.46729-1.5778 0.93457-2.3906 1.416-0.69867 0.41927-1.3973 0.83854-2.1172 1.2705-2.4683 0.95441-3.5704 0.72712-6.0078-0.22363-23.241-18.629-39.169-51.937-47-80-0.50854-1.8214-0.50854-1.8214-1.0273-3.6797-5.8298-24.555-0.7567-45.637 12.215-66.695 6.149-9.3358 12.883-18.307 19.523-27.297 10.23-13.936 18.156-28.901 26.02-44.27 12.534-24.323 12.534-24.323 18.27-30.058zm102 60 1 2z" fill="#3C72F9"/>
<path transform="translate(168.75 241.69)" d="m0 0c1.1034-0.029004 2.2069-0.058008 3.3438-0.087891 12.23-0.093304 22.257 3.2034 31.406 11.4 9.9277 10.301 13.027 24.822 12.92 38.678-1.6837 52.617-30.507 118.95-59.42 162.32-2.8698 0.3723-5.4373 0.52265-8.3125 0.5-1.2613-0.0085803-1.2613-0.0085803-2.5481-0.017334-15.969-0.43739-30.963-5.3869-45.139-12.483-1.1163-0.54527-2.2327-1.0905-3.3828-1.6523-13.366-6.8438-24.983-15.808-35.617-26.348-1.3709-1.3516-1.3709-1.3516-2.7695-2.7305-20.611-21.378-33.942-48.044-33.594-77.949 0.36152-9.7811 2.6469-19.243 4.812-28.753 0.68289-3.1798 1.1564-6.3399 1.5513-9.5669-6.6951 11.83-8.8327 23.474-10.473 36.844-0.53643 3.2106-1.4183 6.1008-2.5273 9.1562h-2c-10.888-25.987-19.162-66.513-10-94 1.9196-0.0087994 1.9196-0.0087994 3.878-0.017776 12.219-0.05788 24.438-0.13096 36.657-0.21794 6.2778-0.044224 12.555-0.083577 18.833-0.11072 28.889-0.12864 57.418-0.49593 86.098-4.2336 5.43-0.64513 10.822-0.68522 16.284-0.73242zm-135.75 50.312 1 2z" fill="#3C73F9"/>
<path transform="translate(255,65)" d="m0 0c13.807-0.24305 27.535-0.0042861 41.312 0.875 1.2788 0.078472 2.5577 0.15694 3.8752 0.23779 7.7037 0.52428 15.224 1.4552 22.812 2.8872 1.0162 21.322-9.6403 39.094-23 55-0.48404 0.58411-0.96809 1.1682-1.4668 1.77-8.4633 10.192-17.357 19.715-27.533 28.23-0.81767 0.68836-0.81767 0.68836-1.6519 1.3906-9.7204 8.1531-19.699 15.709-30.348 22.609-0.61166 0.39671-1.2233 0.79342-1.8535 1.2021-29.576 18.95-63.875 29.214-98.146 35.798-1.0137 0.1969-2.0274 0.39381-3.0718 0.59668-27.676 5.2895-54.736 7.6694-82.866 7.7158-1.0753 0.0036758-2.1505 0.0073517-3.2584 0.011139-12.427 0.022206-24.519-0.34935-36.804-2.3236 0.49131-20.301 13.449-40.96 25-57 0.68449-0.96938 1.369-1.9388 2.0742-2.9375 5.3671-7.4002 11.309-14.096 17.619-20.688 1.0734-1.1288 2.1251-2.2782 3.1704-3.4331 14.641-15.731 35.476-22.591 56.137-25.941l-19-1c8.4866-16.973 43.076-25.714 59.648-31.273 13.27-4.2972 26.556-7.6538 40.352-9.7266 1.1215-0.17515 2.243-0.3503 3.3984-0.53076 9.1072-1.3335 18.028-1.8351 27.227-1.8442 1.302-0.024492 2.6039-0.048984 3.9453-0.074219 12.052-0.036157 22.307 2.7108 32.742 8.6992 0.65678 0.36352 1.3136 0.72703 1.9902 1.1016 1.5718 0.87196 3.1356 1.7585 4.6973 2.6484-0.47945-0.35304-0.9589-0.70608-1.4529-1.0698-2.1647-1.5976-4.3247-3.2013-6.4846-4.8052-0.75475-0.55559-1.5095-1.1112-2.2871-1.6836-1.078-0.80244-1.078-0.80244-2.1777-1.6211-0.66508-0.49226-1.3302-0.98452-2.0154-1.4917-1.5823-1.3286-1.5823-1.3286-2.5823-3.3286z" fill="#3C73F9"/>
<path transform="translate(260,310)" d="m0 0c12.553 0.48282 22.227 7.8183 30.667 16.558 6.8208 7.3831 13.131 16.838 16.333 26.442-0.90399 4.4262-3.6411 7.0888-6.6875 10.312-0.89977 0.96422-1.7995 1.9284-2.7266 2.9219-1.28 1.369-1.28 1.369-2.5859 2.7656-1.1951 1.3475-2.3835 2.7009-3.5625 4.0625-4.0883 4.6982-8.2575 9.3209-12.438 13.938-0.80067 0.88534-1.6013 1.7707-2.4263 2.6829-50.782 55.801-50.782 55.801-74.574 58.317 0.53599-7.0036 2.0451-13.115 4.3125-19.75 0.35119-1.0358 0.70238-2.0717 1.0642-3.1389 11.195-32.309 26.154-63.446 41.436-93.986 0.44432-0.88805 0.88865-1.7761 1.3464-2.6911 1.2626-2.5188 2.5292-5.0355 3.7981-7.5511 0.37953-0.75467 0.75907-1.5093 1.1501-2.2869 1.5104-2.9802 3.0373-5.8125 4.8929-8.5959z" fill="#3C73F9"/>
<path transform="translate(200.01 123.69)" d="m0 0c0.65613 0.43184 1.3123 0.86367 1.9883 1.3086 1.0615 0.69416 1.0615 0.69416 2.1445 1.4023 6.0644 4.6018 8.9875 10.289 10.855 17.598 1.3024 10.431-0.24147 19.362-6.625 27.812-4.7044 5.0894-12.292 8.8425-19.195 9.4258-10.641 0.23897-17.596-1.9761-25.453-9.2383-6.295-7.2919-7.0958-16.214-7-25.457 0.65136-8.4397 5.0211-14.991 11.273-20.543 8.9908-6.7349 22.067-7.7213 32.012-2.3086z" fill="#FCFCFD"/>
</svg>
